<svg xmlns="http://www.w3.org/2000/svg" width="1em" height="1em" fill="currentColor" color="#4a76a8" viewBox="0 0 24 24"><path d="M19.91 13.03c-.38-.5-.27-.71 0-1.15.01 0 3.21-4.43 3.54-5.93.17-.55 0-.95-.79-.95h-2.62c-.67 0-.98.35-1.14.73 0 0-1.34 3.2-3.23 5.27-.6.6-.9.8-1.22.8-.17 0-.42-.2-.42-.75v-5.1c0-.66-.19-.95-.74-.95H9.16c-.42 0-.67.3-.67.6 0 .61.95.76 1.05 2.5v3.8c0 .84-.16.99-.49.99-.9 0-3.06-3.21-4.34-6.89-.26-.71-.51-1-1.19-1H.9c-.75 0-.9.35-.9.73 0 .68.9 4.07 4.15 8.55 2.17 3.06 5.22 4.72 8 4.72 1.67 0 1.88-.37 1.88-1 0-2.92-.15-3.2.68-3.2.4 0 1.06.2 2.62 1.67C19.11 18.22 19.41 19 20.4 19h2.63c.75 0 1.13-.37.9-1.1-.5-1.52-3.86-4.66-4.02-4.87z"/></svg>