<?xml version="1.0" standalone="no"?>
<!DOCTYPE svg PUBLIC "-//W3C//DTD SVG 20010904//EN"
 "http://www.w3.org/TR/2001/REC-SVG-20010904/DTD/svg10.dtd">
<svg version="1.0" xmlns="http://www.w3.org/2000/svg"
 width="1000.000000pt" height="1000.000000pt" viewBox="0 0 1000.000000 1000.000000"
 preserveAspectRatio="xMidYMid meet">
<metadata>
Created by potrace 1.11, written by Peter Selinger 2001-2013
</metadata>
<g transform="translate(0.000000,1000.000000) scale(0.100000,-0.100000)"
fill="#000000" stroke="none">
<path d="M1595 9984 c-333 -52 -651 -192 -905 -399 -92 -75 -256 -246 -322
-335 -165 -223 -275 -471 -336 -749 l-27 -126 0 -3375 0 -3375 27 -126 c65
-301 199 -583 383 -809 75 -92 246 -256 335 -322 223 -165 471 -275 749 -336
l126 -27 3375 0 3375 0 126 27 c301 65 583 199 809 383 92 75 256 246 322 335
165 223 275 471 336 749 l27 126 0 3375 0 3375 -27 126 c-61 278 -171 526
-336 749 -66 89 -230 260 -322 335 -224 182 -503 315 -804 383 l-121 27 -3350
1 c-2826 2 -3364 0 -3440 -12z m6525 -2484 l0 -620 -1250 0 -1250 0 0 -2500 0
-2500 -620 0 -620 0 0 2500 0 2500 -1250 0 -1250 0 0 620 0 620 3120 0 3120 0
0 -620z"/>
</g>
</svg>
