<svg xmlns="http://www.w3.org/2000/svg" width="1em" height="1em" fill="currentColor" color="#fa860e" viewBox="0 0 95.481 95.481"><path d="M43.04 67.25c-7.4-.77-14.08-2.6-19.79-7.06-.7-.56-1.44-1.1-2.09-1.71-2.5-2.4-2.75-5.16-.77-8 1.7-2.42 4.53-3.07 7.49-1.67.57.27 1.11.6 1.64.97 10.65 7.31 25.27 7.52 35.96.33a9.75 9.75 0 013.5-1.82 5.5 5.5 0 016.3 2.52c1.57 2.55 1.55 5.03-.38 7.01a29.05 29.05 0 01-10.46 6.76c-3.73 1.45-7.82 2.18-11.87 2.67.6.66.9.99 1.28 1.37 5.5 5.53 11.02 11.03 16.5 16.57 1.87 1.89 2.26 4.23 1.23 6.42a6.51 6.51 0 01-6.11 3.81 5.95 5.95 0 01-3.86-1.97c-4.15-4.18-8.38-8.28-12.45-12.53-1.18-1.24-1.75-1-2.8.07-4.17 4.3-8.4 8.53-12.67 12.73-1.92 1.9-4.2 2.23-6.42 1.15a6.5 6.5 0 01-3.75-5.97c.08-1.64.88-2.9 2-4.02C30.98 79.45 36.4 74 41.83 68.56c.36-.36.7-.75 1.22-1.3z"/><path d="M47.55 48.33A24.18 24.18 0 0123.59 24.1 24.2 24.2 0 0147.84 0C61.2.04 71.93 10.97 71.86 24.48c-.07 13.2-10.97 23.9-24.31 23.85zm12-24.19a11.77 11.77 0 00-11.8-11.8c-6.62 0-11.9 5.32-11.84 11.95a11.77 11.77 0 0011.9 11.7 11.74 11.74 0 0011.74-11.85z"/></svg>