<svg xmlns="http://www.w3.org/2000/svg" width="1em" height="1em" fill="currentColor" viewBox="0 0 512 512" color="#1da1f2"><path d="M512 97.25c-19.04 8.35-39.33 13.9-60.48 16.57 21.76-13 38.37-33.4 46.18-58-20.3 12.08-42.7 20.63-66.56 25.4C411.87 60.7 384.42 48 354.46 48c-58.1 0-104.9 47.17-104.9 105 0 8.3.7 16.3 2.44 23.93-87.26-4.26-164.48-46.08-216.35-109.8-9.06 15.72-14.37 33.7-14.37 53.06 0 36.34 18.72 68.57 46.62 87.22-16.86-.32-33.4-5.2-47.42-12.92 0 .32 0 .73 0 1.15 0 51 36.38 93.37 84.1 103.13-8.55 2.34-17.86 3.46-27.52 3.46-6.72 0-13.5-.38-19.88-1.8 13.6 41.58 52.2 72.14 98.08 73.13-35.7 27.93-81.05 44.77-130.14 44.77-8.6 0-16.86-.4-25.12-1.44C46.5 446.88 101.6 464 161.02 464c193.16 0 298.76-160 298.76-298.7 0-4.63-.16-9.1-.4-13.56 20.84-14.78 38.35-33.24 52.62-54.5z"/></svg>