<svg xmlns="http://www.w3.org/2000/svg" width="28" height="28" preserveAspectRatio="xMinYMin meet"><path fill="#DADADA" fill-rule="evenodd" d="M18.707 17.293c0.3906 0.3904 0.3906 1.0236 0 1.414c-0.3904 0.3906 -1.0236 0.3906 -1.414 0l-4.293 -4.2928l-4.293 4.293c-0.3904 0.3904 -1.0236 0.3904 -1.414 0c-0.3906 -0.3906 -0.3906 -1.0238 0 -1.4143l4.2928 -4.293l-4.293 -4.293c-0.3904 -0.3904 -0.3904 -1.0236 0 -1.414c0.3906 -0.3906 1.0238 -0.3906 1.4143 0l4.293 4.2928l4.293 -4.293c0.3904 -0.3904 1.0236 -0.3904 1.414 0c0.3906 0.3906 0.3906 1.0238 0 1.4143l-4.2928 4.293l4.293 4.293z"/><circle cx="13" cy="13" r="12" fill="none" stroke="#DADADA" stroke-width="2"/></svg>